<svg width="2000" height="2681" viewBox="0 0 2000 2681" fill="none" xmlns="http://www.w3.org/2000/svg">
<g filter="url(#filter0_f_233_3894)">
<ellipse cx="1044" cy="1483.33" rx="194" ry="136" fill="#5BB0FF"/>
</g>
<g filter="url(#filter1_f_233_3894)">
<ellipse cx="1279.37" cy="1700.43" rx="148.372" ry="136.1" fill="#44A1F6"/>
</g>
<g filter="url(#filter2_f_233_3894)">
<ellipse cx="567.372" cy="1735.43" rx="148.372" ry="136.1" fill="#0386FE"/>
</g>
<g filter="url(#filter3_f_233_3894)">
<ellipse cx="399.318" cy="1535.28" rx="125.318" ry="114.953" fill="#6AD5ED"/>
</g>
<g filter="url(#filter4_f_233_3894)">
<ellipse cx="865.208" cy="1709.06" rx="199.208" ry="182.732" fill="#00D1FF"/>
</g>
<g filter="url(#filter5_f_233_3894)">
<ellipse cx="270.5" cy="1599.83" rx="148.5" ry="153.5" fill="#316BFF" fill-opacity="0.8"/>
</g>
<g filter="url(#filter6_f_233_3894)">
<ellipse cx="1382.5" cy="1483.83" rx="144.5" ry="105.5" fill="#316BFF"/>
</g>
<g filter="url(#filter7_f_233_3894)">
<path d="M959.317 1512.05C945.64 1574.04 865.458 1560.67 780.238 1541.87C562.841 1714.26 383.84 1483.07 397.516 1421.07C411.193 1359.07 587.912 1200.83 673.132 1219.63C758.351 1238.43 972.994 1450.05 959.317 1512.05Z" fill="#236AF2"/>
</g>
<g opacity="0.6" filter="url(#filter8_f_233_3894)">
<ellipse cx="578.5" cy="386" rx="578.5" ry="386" transform="matrix(4.37114e-08 -1 -1 -4.37114e-08 1369 2262.33)" fill="#308FFF" fill-opacity="0.9"/>
</g>
<g filter="url(#filter9_f_233_3894)">
<ellipse cx="292.443" cy="444.644" rx="292.443" ry="444.644" transform="matrix(0.996736 -0.0807359 -0.0807359 -0.996736 383.873 2311.95)" fill="url(#paint0_linear_233_3894)"/>
</g>
<mask id="mask0_233_3894" style="mask-type:alpha" maskUnits="userSpaceOnUse" x="324" y="1157" width="892" height="1550">
<path d="M324.213 1157.36L1151.3 1349.94L1215.15 2124.77L1184.13 2388.16L765.99 2706.38L407.343 2601.08L342.579 1801.53L324.213 1157.36Z" fill="url(#paint1_linear_233_3894)"/>
</mask>
<g mask="url(#mask0_233_3894)">
</g>
<mask id="mask1_233_3894" style="mask-type:alpha" maskUnits="userSpaceOnUse" x="282" y="1222" width="989" height="1459">
<path d="M395.22 2680.32C771.674 2649.22 1251.9 2609.46 1270.77 2609.4L1158.46 1222.83L282.907 1293.75L395.22 2680.32Z" fill="url(#paint2_linear_233_3894)"/>
</mask>
<g mask="url(#mask1_233_3894)">
<path d="M1103.89 2036.38C1091.22 1879.99 945.732 1759.43 824.844 1769.22C703.956 1779.01 550.44 1855.17 564.031 2022.96C570.766 2106.11 498.133 2213.61 566.334 2307.52C635.761 2403.12 798.785 2366.9 859.767 2361.96C980.655 2352.16 1116.56 2192.76 1103.89 2036.38Z" fill="url(#paint3_linear_233_3894)"/>
<g filter="url(#filter10_f_233_3894)">
<path d="M1093.69 2039.09C1080.1 1871.37 954.476 1760.73 850.564 1769.14C746.653 1777.56 615.414 1851.88 628.999 2019.61C635.731 2102.72 571.741 2209.48 631.485 2304.04C692.303 2400.29 832.174 2365.95 884.592 2361.71C988.503 2353.29 1107.27 2206.81 1093.69 2039.09Z" fill="url(#paint4_linear_233_3894)"/>
</g>
<g filter="url(#filter11_f_233_3894)">
<path d="M1093.28 2034.01C1078.05 1846.03 924.255 1723.07 796.145 1733.44C668.035 1743.82 505.659 1828.36 520.885 2016.35C528.431 2109.5 436.688 2230.78 509.449 2336.29C583.517 2443.69 767.004 2435.04 831.629 2429.81C959.739 2419.43 1108.5 2221.99 1093.28 2034.01Z" fill="url(#paint5_linear_233_3894)"/>
</g>
<g filter="url(#filter12_f_233_3894)">
<path d="M1076.35 2013.54C1026.12 1784 844.392 1605.21 694.456 1617.35C544.52 1629.5 391.972 1760.43 410.234 1985.88C419.283 2097.6 267.502 2254.45 352.919 2381.14C439.87 2510.1 630.865 2577.98 706.5 2571.85C856.436 2559.71 1134.53 2279.46 1076.35 2013.54Z" fill="url(#paint6_linear_233_3894)"/>
</g>
<g filter="url(#filter13_f_233_3894)">
<path d="M1009.33 1940.26C989.67 1697.51 779.564 1504.18 632.971 1516.06C486.377 1527.93 338.176 1667.6 357.838 1910.35C367.582 2030.65 323.467 2181.24 408.044 2318.24C494.141 2457.71 776.051 2754.84 850 2748.85C971.146 2739.04 1094.89 2407.01 1064.77 2138.35C1058.45 2081.92 1012.75 1982.4 1009.33 1940.26Z" fill="url(#paint7_linear_233_3894)"/>
</g>
<g filter="url(#filter14_f_233_3894)">
<path d="M943.165 1850.52C922.846 1599.66 707.77 1399.71 557.834 1411.85C407.898 1424 256.426 1568.2 276.746 1819.06C286.815 1943.37 241.82 2098.95 328.448 2240.59C416.632 2384.78 618.357 2334.03 693.993 2327.91C843.929 2315.76 963.485 2101.38 943.165 1850.52Z" fill="url(#paint8_linear_233_3894)"/>
</g>
<g filter="url(#filter15_f_233_3894)">
<path d="M982.292 2037.27C964.512 1817.77 751.623 1644.81 601.687 1656.95C451.751 1669.1 298.952 1796.92 316.731 2016.42C325.542 2125.19 296.356 2260.49 381.489 2383.68C468.151 2509.08 670.222 2462.6 745.858 2456.47C895.794 2444.33 1000.07 2256.77 982.292 2037.27Z" fill="url(#paint9_linear_233_3894)"/>
</g>
</g>
<g filter="url(#filter16_f_233_3894)">
<path d="M494.137 2235.83C541.516 2250.5 648.099 2215.74 759.931 2170.74L908.472 2158.71C1037.69 2148.24 986.017 1945.54 897.3 1780.67C808.582 1615.81 812.555 1619.84 687.313 1634.34C562.071 1648.84 618.12 1560.46 555.452 1462.09C492.785 1363.71 607.6 1570.88 520.367 1694.46C433.133 1818.04 408.029 1742.99 502.016 1912.87C596.002 2082.75 553.144 2078.95 507.696 2088.08C462.248 2097.2 458.035 2045.28 416.206 2054.11C374.378 2062.94 395.54 2084.09 424.268 2153.64C452.996 2223.18 446.757 2221.16 494.137 2235.83Z" fill="#120ECF"/>
</g>
<mask id="mask2_233_3894" style="mask-type:alpha" maskUnits="userSpaceOnUse" x="-55" y="1599" width="1336" height="906">
<path d="M1280.45 1711.29L1012.79 2504.46L376.018 2463.46L163.067 2397.34L-54.1919 1940.58L79.8296 1599.57L747.213 1642.9L1280.45 1711.29Z" fill="url(#paint10_linear_233_3894)"/>
</mask>
<g mask="url(#mask2_233_3894)">
<mask id="mask3_233_3894" style="mask-type:alpha" maskUnits="userSpaceOnUse" x="-34" y="1611" width="1245" height="881">
<path d="M18.9343 1611.59C-5.03292 1988.56 -31.0361 2400.03 -33.4716 2418.73L1158.58 2491.06L1210.98 1683.92L18.9343 1611.59Z" fill="url(#paint11_linear_233_3894)"/>
</mask>
<g mask="url(#mask3_233_3894)">
<path d="M453.388 2365.25C583.925 2373.72 702.442 2245.85 710.3 2124.82C718.158 2003.79 675.629 1841.53 535.574 1832.44C466.17 1827.93 387.154 1741.55 300.783 1796.47C212.86 1852.37 221.229 2018.68 217.265 2079.73C209.407 2200.76 322.851 2356.77 453.388 2365.25Z" fill="#02EFFE"/>
<g filter="url(#filter17_f_233_3894)">
<path d="M452.498 2354.78C592.495 2363.87 699.493 2265.57 705.594 2171.6C711.695 2077.64 666.881 1950.9 526.883 1941.81C457.508 1937.31 377.51 1866.58 292.048 1908.02C205.05 1950.21 215.808 2079.6 212.73 2127C206.63 2220.96 312.5 2345.69 452.498 2354.78Z" fill="#02EFFE"/>
</g>
<g filter="url(#filter18_f_233_3894)">
<path d="M456.735 2355.05C613.645 2365.24 734.345 2243.12 741.878 2127.09C749.411 2011.07 700.096 1854.96 543.186 1844.77C465.43 1839.73 376.952 1742.21 280.819 1793.99C182.96 1846.7 193.432 2016.14 189.631 2074.67C182.098 2190.7 299.825 2344.86 456.735 2355.05Z" fill="#02EFFE"/>
</g>
<g filter="url(#filter19_f_233_3894)">
<path d="M477.366 2318.34C673.136 2299.45 844.407 2143.52 854.153 1993.41C863.9 1843.3 776.109 1674.64 587.927 1662.42C494.673 1656.36 385.417 1484.97 269.77 1552.53C152.046 1621.3 145.419 1896.19 140.502 1971.92C130.756 2122.03 250.578 2340.21 477.366 2318.34Z" fill="#02EFFE"/>
</g>
<g filter="url(#filter20_f_233_3894)">
<path d="M530.581 2283.59C733.204 2296.74 934.669 2115.6 944.199 1968.84C953.728 1822.07 858.157 1656.54 655.533 1643.38C555.124 1636.86 436.844 1572.94 312.804 1638.28C186.535 1704.79 107.559 2005.26 102.752 2079.3C93.2233 2226.06 327.957 2270.43 530.581 2283.59Z" fill="#02EFFE"/>
</g>
<g filter="url(#filter21_f_233_3894)">
<path d="M627.718 2231.06C837.11 2244.66 1030.22 2058.55 1039.96 1908.44C1049.71 1758.33 950.838 1588.94 741.445 1575.35C637.681 1568.61 469.563 1761.63 341.429 1828.38C210.993 1896.33 226.236 2102.91 221.32 2178.64C211.573 2328.75 418.325 2217.47 627.718 2231.06Z" fill="#02EFFE"/>
</g>
<g filter="url(#filter22_f_233_3894)">
<path d="M468.675 2244.71C651.894 2256.6 822.468 2069.03 832.215 1918.92C841.961 1768.81 756.764 1600.32 573.546 1588.42C482.752 1582.52 375.105 1535.44 262.381 1603.19C147.632 1672.15 159.308 1878.5 154.391 1954.23C144.645 2104.34 285.457 2232.81 468.675 2244.71Z" fill="#02EFFE"/>
</g>
</g>
</g>
<mask id="mask4_233_3894" style="mask-type:alpha" maskUnits="userSpaceOnUse" x="-94" y="935" width="1528" height="1766">
<path d="M1433.09 1262.3C1074.02 1156.25 351.539 942.46 334.116 935.636L-93.2444 2373.39L1005.73 2700.05L1433.09 1262.3Z" fill="url(#paint12_linear_233_3894)"/>
</mask>
<g mask="url(#mask4_233_3894)">
<path d="M202.479 1554.12C190.837 1714.13 242.281 1890.82 357.509 1925.08C472.737 1959.33 643.465 1938.63 695.18 1764.65C720.808 1678.43 797.022 1704.06 770.088 1584.57C742.671 1462.94 578.466 1439.93 520.339 1422.65C405.111 1388.4 214.121 1394.11 202.479 1554.12Z" fill="#308FFF"/>
<g filter="url(#filter23_f_233_3894)">
<path d="M203.657 1574.93C212.404 1844.14 234.718 1886.33 333.765 1915.77C432.811 1945.21 582.296 1918.23 633.99 1744.32C659.607 1658.13 726.953 1683.42 708.065 1566.37C688.838 1447.22 543.89 1429.93 493.926 1415.07C394.879 1385.63 192.727 1439.99 203.657 1574.93Z" fill="#308FFF"/>
</g>
<g filter="url(#filter24_f_233_3894)">
<path d="M211.365 1560.38C184.006 1871.01 314.296 2042.23 436.408 2078.52C558.52 2114.82 674.502 1981.97 732.441 1787.05C761.152 1690.46 838.159 1783.55 811.462 1650.71C784.285 1515.49 590.753 1464.34 529.153 1446.03C407.041 1409.74 269.304 1365.46 211.365 1560.38Z" fill="#308FFF"/>
</g>
<g filter="url(#filter25_f_233_3894)">
<path d="M219.136 1587.18C190.803 1860.64 285.604 2167.57 428.521 2210.05C571.437 2252.53 753.322 2091.9 822.809 1858.13C857.242 1742.28 1003.24 1821.45 972.978 1662.66C942.175 1501.02 737.785 1474.94 665.691 1453.51C522.775 1411.03 247.47 1313.71 219.136 1587.18Z" fill="#308FFF"/>
</g>
<g filter="url(#filter26_f_233_3894)">
<path d="M234.387 1792.76C268.266 2211.03 277.57 2218.5 417.3 2260.04C557.031 2301.57 767.393 2205.03 842.212 1953.32C879.288 1828.59 863.404 1790.6 837.871 1621.72C811.879 1449.81 573.281 1424.4 502.794 1403.45C363.063 1361.92 214.739 1550.2 234.387 1792.76Z" fill="#308FFF"/>
</g>
<g filter="url(#filter27_f_233_3894)">
<path d="M279.534 1800C202.216 2060.11 323.986 2340.03 466.903 2382.51C609.819 2424.99 804.719 2335 882.037 2074.88C920.351 1945.98 990.623 1729.13 964.975 1554.83C938.866 1377.4 600.881 1510.16 528.787 1488.73C385.87 1446.25 356.852 1539.88 279.534 1800Z" fill="#308FFF"/>
</g>
<g filter="url(#filter28_f_233_3894)">
<path d="M314.968 1597.6C247.315 1825.2 377.405 2077.12 520.322 2119.6C663.238 2162.08 853.088 2089.08 920.741 1861.48C954.266 1748.69 969.131 1837.88 937.792 1682.72C905.891 1524.78 701.751 1497.86 629.657 1476.43C486.74 1433.95 382.621 1369.99 314.968 1597.6Z" fill="#308FFF"/>
</g>
</g>
<g opacity="0.6" filter="url(#filter29_f_233_3894)">
<path d="M866.424 1859.78C850.831 1667.28 659.201 1459.19 561.287 1467.12C463.373 1475.05 228.881 1350.08 463.026 1810.19C478.619 2002.69 307.137 2246.24 617.753 2164.22C715.666 2156.29 591.645 1964.3 866.424 1859.78Z" fill="url(#paint13_linear_233_3894)"/>
</g>
<mask id="mask5_233_3894" style="mask-type:alpha" maskUnits="userSpaceOnUse" x="-42" y="0" width="2263" height="2039">
<path d="M-41.7188 861.636C212.357 1383.57 591.338 2012 602.302 2038.84L2220.15 1215.95L1743.25 0.96794L-41.7188 861.636Z" fill="url(#paint14_linear_233_3894)"/>
</mask>
<g mask="url(#mask5_233_3894)">
<path d="M1098.74 1533.03C1276.32 1443.66 1334.88 1181.46 1253.53 1013.77C1172.17 846.072 993.515 662.179 802.982 758.067C708.564 805.584 539.537 751.179 467.875 891.142C394.925 1033.62 531.852 1249.27 572.892 1333.86C654.249 1501.56 921.154 1622.4 1098.74 1533.03Z" fill="#308FFF"/>
<g filter="url(#filter30_f_233_3894)">
<path d="M1089.64 1519.73C1280.1 1423.89 1345.95 1210.07 1282.79 1079.87C1219.62 949.682 1064.87 814.99 874.42 910.838C780.04 958.336 621.58 925.591 540.903 1046.86C458.777 1170.3 570.878 1334.8 602.741 1400.48C665.904 1530.67 899.188 1615.58 1089.64 1519.73Z" fill="#308FFF"/>
</g>
<g filter="url(#filter31_f_233_3894)">
<path d="M1095.41 1516.83C1308.87 1409.4 1374.65 1153.2 1296.65 992.444C1218.66 831.683 1035.77 661.245 822.307 768.673C716.526 821.909 526.657 759.925 439.819 903.229C351.421 1049.11 493.481 1267.32 532.824 1348.42C610.817 1509.18 881.944 1624.26 1095.41 1516.83Z" fill="#308FFF"/>
</g>
<g filter="url(#filter32_f_233_3894)">
<path d="M1094.65 1451.88C1337.05 1275.66 1443.53 935.296 1342.63 727.305C1241.72 519.314 998.87 361.784 742.864 490.623C616.001 554.468 342.939 409.855 242.463 589.284C140.183 771.937 339.68 1144.16 390.582 1249.08C491.489 1457.08 813.844 1656.03 1094.65 1451.88Z" fill="#308FFF"/>
</g>
<g filter="url(#filter33_f_233_3894)">
<path d="M1138.11 1364.43C1413.76 1225.7 1540.75 828.39 1442.09 625.036C1343.43 421.682 1092.75 274.33 817.098 413.055C680.499 481.8 476.992 487.662 363.83 670.603C248.635 856.831 372.64 1319.03 422.407 1421.61C521.064 1624.96 862.459 1503.15 1138.11 1364.43Z" fill="#308FFF"/>
</g>
<g filter="url(#filter34_f_233_3894)">
<path d="M1225.7 1219.36C1510.56 1076 1622.83 678.492 1521.92 470.501C1421.01 262.51 1163.08 112.568 878.224 255.927C737.062 326.969 662.802 714.426 545.338 902.404C425.764 1093.76 602.209 1357.9 653.111 1462.82C754.017 1670.81 940.842 1362.72 1225.7 1219.36Z" fill="#308FFF"/>
</g>
</g>
<mask id="mask6_233_3894" style="mask-type:alpha" maskUnits="userSpaceOnUse" x="232" y="680" width="1518" height="1187">
<path d="M1749.3 1482.69C1638.48 1137.74 1497.04 697.71 1492.87 680.118L232.411 1064.31L488.837 1866.89L1749.3 1482.69Z" fill="url(#paint15_linear_233_3894)"/>
</mask>
<g mask="url(#mask6_233_3894)">
<path d="M950.977 999.878C808.814 1043.21 728.779 1203.25 764.184 1314.06C799.589 1424.87 903.6 1552.75 1056.13 1506.26C1131.71 1483.22 1247.16 1529.32 1319.33 1446.77C1392.8 1362.73 1323.72 1217.93 1305.86 1162.03C1270.46 1051.22 1093.14 956.546 950.977 999.878Z" fill="#02EFFE"/>
<g filter="url(#filter35_f_233_3894)">
<path d="M955.714 1008.85C803.248 1055.32 728.077 1194.83 758.51 1290.08C788.943 1385.33 886.405 1492.79 1038.87 1446.32C1114.43 1423.29 1227.3 1461.48 1301.91 1386.68C1377.86 1310.55 1315.58 1186.97 1300.22 1138.92C1269.79 1043.67 1108.18 962.376 955.714 1008.85Z" fill="#02EFFE"/>
</g>
<g filter="url(#filter36_f_233_3894)">
<path d="M951.096 1010.26C780.21 1062.35 699.762 1230.61 737.283 1348.04C774.803 1465.47 888.515 1599.93 1059.4 1547.84C1144.08 1522.03 1276.46 1583.19 1358.38 1494.04C1441.78 1403.3 1364.14 1240.3 1345.22 1181.06C1307.7 1063.63 1121.98 958.172 951.096 1010.26Z" fill="#02EFFE"/>
</g>
<g filter="url(#filter37_f_233_3894)">
<path d="M935.817 1030.18C734.038 1123.29 607.94 1328.87 651.852 1466.31C695.765 1603.75 850.321 1719.69 1055.26 1657.22C1156.82 1626.26 1335.24 1736.26 1434.03 1631.04C1534.6 1523.93 1446.78 1345 1424.63 1275.67C1380.72 1138.23 1169.57 922.312 935.817 1030.18Z" fill="#02EFFE"/>
</g>
<g filter="url(#filter38_f_233_3894)">
<path d="M882.504 1107.47C661.834 1174.73 528.438 1409.71 571.371 1544.09C614.305 1678.46 776.021 1788.58 996.691 1721.32C1106.04 1687.99 1255.2 1698.8 1363.74 1592.29C1474.23 1483.86 1385.61 1309.75 1363.95 1241.97C1321.01 1107.59 1103.17 1040.21 882.504 1107.47Z" fill="#02EFFE"/>
</g>
<g filter="url(#filter39_f_233_3894)">
<path d="M813.755 1187.28C585.713 1256.79 447.26 1497.75 491.173 1635.19C535.085 1772.62 701.711 1884.88 929.754 1815.38C1042.76 1780.93 1196.73 1791.56 1309.12 1682.2C1423.53 1570.87 1332.57 1392.89 1310.41 1323.56C1266.5 1186.12 1041.8 1117.77 813.755 1187.28Z" fill="#02EFFE"/>
</g>
<g filter="url(#filter40_f_233_3894)">
<path d="M978.291 1113.15C778.754 1173.97 664.841 1407.44 708.754 1544.88C752.666 1682.32 904.398 1799.12 1103.94 1738.3C1202.82 1708.16 1334.56 1708.13 1430.17 1603.88C1527.5 1497.75 1440.41 1318.59 1418.26 1249.26C1374.35 1111.82 1177.83 1052.33 978.291 1113.15Z" fill="#02EFFE"/>
</g>
</g>
<mask id="mask7_233_3894" style="mask-type:alpha" maskUnits="userSpaceOnUse" x="445" y="359" width="1092" height="1420">
<path d="M1270.04 359.468C885.08 444.016 464.938 536.46 445.494 539.378L711.45 1778.21L1536 1598.3L1270.04 359.468Z" fill="url(#paint16_linear_233_3894)"/>
</mask>
<g mask="url(#mask7_233_3894)">
<path d="M660.409 1055.21C678.697 1142.15 782.356 1195.99 861.504 1178.72C940.652 1161.45 1037.12 1103.59 1017.49 1010.31C1007.77 964.083 1048.87 896.411 997.908 850.089C946.026 802.936 840.753 839.202 800.826 847.913C721.679 865.182 642.121 968.264 660.409 1055.21Z" fill="#308FFF"/>
<g filter="url(#filter41_f_233_3894)">
<path d="M666.969 1052.69C686.582 1145.93 769.159 1197.71 830.607 1184.3C892.055 1170.9 965.294 1118.12 945.681 1024.88C935.961 978.668 966.834 913.252 924.688 865.029C881.783 815.941 800.649 846.934 769.652 853.698C708.204 867.105 647.356 959.441 666.969 1052.69Z" fill="#308FFF"/>
</g>
<g filter="url(#filter42_f_233_3894)">
<path d="M667.563 1055.51C689.546 1160.02 789.91 1216.35 865.785 1199.79C941.66 1183.24 1032.94 1122.08 1010.96 1017.57C1000.06 965.781 1046.6 889.859 995.871 836.572C944.234 782.328 837.328 820.551 799.053 828.902C723.178 845.457 645.581 950.999 667.563 1055.51Z" fill="#308FFF"/>
</g>
<g filter="url(#filter43_f_233_3894)">
<path d="M694.892 1062.21C742.606 1186.75 873.875 1269.89 972.041 1248.47C1070.21 1227.06 1162.55 1138.41 1136.19 1013.07C1123.13 950.958 1213.32 847.768 1148.92 784.64C1083.35 720.378 905.626 766.94 856.106 777.745C757.94 799.164 639.617 917.928 694.892 1062.21Z" fill="#308FFF"/>
</g>
<g filter="url(#filter44_f_233_3894)">
<path d="M726.88 1090.57C755.267 1225.53 908.21 1323.76 1004.19 1302.82C1100.17 1281.88 1189.09 1188.72 1160.7 1053.76C1146.64 986.884 1166.19 897.689 1101.68 828.661C1036.01 758.392 828.705 762.373 780.289 772.937C684.312 793.878 698.494 955.616 726.88 1090.57Z" fill="#308FFF"/>
</g>
<g filter="url(#filter45_f_233_3894)">
<path d="M778.266 1144.38C807.602 1283.85 962.217 1375.69 1060.38 1354.27C1158.55 1332.85 1249.34 1236.82 1220.01 1097.35C1205.47 1028.24 1050.96 954.026 984.806 882.581C917.462 809.852 787.573 858.071 738.053 868.876C639.887 890.295 748.931 1004.91 778.266 1144.38Z" fill="#308FFF"/>
</g>
<g filter="url(#filter46_f_233_3894)">
<path d="M740.592 1042.89C766.26 1164.92 917.719 1241.75 1015.89 1220.33C1114.05 1198.91 1206.76 1112 1181.09 989.963C1168.37 929.49 1179.04 850.366 1115.05 789.185C1049.9 726.904 919.511 772.748 869.991 783.553C771.825 804.972 714.924 920.855 740.592 1042.89Z" fill="#308FFF"/>
</g>
</g>
<defs>
<filter id="filter0_f_233_3894" x="728.229" y="1225.56" width="631.542" height="515.542" filterUnits="userSpaceOnUse" color-interpolation-filters="sRGB">
<feFlood flood-opacity="0" result="BackgroundImageFix"/>
<feBlend mode="normal" in="SourceGraphic" in2="BackgroundImageFix" result="shape"/>
<feGaussianBlur stdDeviation="60.8855" result="effect1_foregroundBlur_233_3894"/>
</filter>
<filter id="filter1_f_233_3894" x="1009.23" y="1442.56" width="540.285" height="515.743" filterUnits="userSpaceOnUse" color-interpolation-filters="sRGB">
<feFlood flood-opacity="0" result="BackgroundImageFix"/>
<feBlend mode="normal" in="SourceGraphic" in2="BackgroundImageFix" result="shape"/>
<feGaussianBlur stdDeviation="60.8855" result="effect1_foregroundBlur_233_3894"/>
</filter>
<filter id="filter2_f_233_3894" x="297.229" y="1477.56" width="540.285" height="515.743" filterUnits="userSpaceOnUse" color-interpolation-filters="sRGB">
<feFlood flood-opacity="0" result="BackgroundImageFix"/>
<feBlend mode="normal" in="SourceGraphic" in2="BackgroundImageFix" result="shape"/>
<feGaussianBlur stdDeviation="60.8855" result="effect1_foregroundBlur_233_3894"/>
</filter>
<filter id="filter3_f_233_3894" x="152.229" y="1298.56" width="494.178" height="473.449" filterUnits="userSpaceOnUse" color-interpolation-filters="sRGB">
<feFlood flood-opacity="0" result="BackgroundImageFix"/>
<feBlend mode="normal" in="SourceGraphic" in2="BackgroundImageFix" result="shape"/>
<feGaussianBlur stdDeviation="60.8855" result="effect1_foregroundBlur_233_3894"/>
</filter>
<filter id="filter4_f_233_3894" x="544.229" y="1404.56" width="641.958" height="609.007" filterUnits="userSpaceOnUse" color-interpolation-filters="sRGB">
<feFlood flood-opacity="0" result="BackgroundImageFix"/>
<feBlend mode="normal" in="SourceGraphic" in2="BackgroundImageFix" result="shape"/>
<feGaussianBlur stdDeviation="60.8855" result="effect1_foregroundBlur_233_3894"/>
</filter>
<filter id="filter5_f_233_3894" x="0.228935" y="1324.56" width="540.542" height="550.542" filterUnits="userSpaceOnUse" color-interpolation-filters="sRGB">
<feFlood flood-opacity="0" result="BackgroundImageFix"/>
<feBlend mode="normal" in="SourceGraphic" in2="BackgroundImageFix" result="shape"/>
<feGaussianBlur stdDeviation="60.8855" result="effect1_foregroundBlur_233_3894"/>
</filter>
<filter id="filter6_f_233_3894" x="1116.23" y="1256.56" width="532.542" height="454.542" filterUnits="userSpaceOnUse" color-interpolation-filters="sRGB">
<feFlood flood-opacity="0" result="BackgroundImageFix"/>
<feBlend mode="normal" in="SourceGraphic" in2="BackgroundImageFix" result="shape"/>
<feGaussianBlur stdDeviation="60.8855" result="effect1_foregroundBlur_233_3894"/>
</filter>
<filter id="filter7_f_233_3894" x="275.01" y="1096.32" width="806.702" height="630.01" filterUnits="userSpaceOnUse" color-interpolation-filters="sRGB">
<feFlood flood-opacity="0" result="BackgroundImageFix"/>
<feBlend mode="normal" in="SourceGraphic" in2="BackgroundImageFix" result="shape"/>
<feGaussianBlur stdDeviation="60.8855" result="effect1_foregroundBlur_233_3894"/>
</filter>
<filter id="filter8_f_233_3894" x="185" y="693.328" width="1596" height="1981" filterUnits="userSpaceOnUse" color-interpolation-filters="sRGB">
<feFlood flood-opacity="0" result="BackgroundImageFix"/>
<feBlend mode="normal" in="SourceGraphic" in2="BackgroundImageFix" result="shape"/>
<feGaussianBlur stdDeviation="206" result="effect1_foregroundBlur_233_3894"/>
</filter>
<filter id="filter9_f_233_3894" x="245.741" y="1301.32" width="787.441" height="1087.66" filterUnits="userSpaceOnUse" color-interpolation-filters="sRGB">
<feFlood flood-opacity="0" result="BackgroundImageFix"/>
<feBlend mode="normal" in="SourceGraphic" in2="BackgroundImageFix" result="shape"/>
<feGaussianBlur stdDeviation="50" result="effect1_foregroundBlur_233_3894"/>
</filter>
<filter id="filter10_f_233_3894" x="601.768" y="1764.69" width="496.988" height="610.411" filterUnits="userSpaceOnUse" color-interpolation-filters="sRGB">
<feFlood flood-opacity="0" result="BackgroundImageFix"/>
<feBlend mode="normal" in="SourceGraphic" in2="BackgroundImageFix" result="shape"/>
<feGaussianBlur stdDeviation="2" result="effect1_foregroundBlur_233_3894"/>
</filter>
<filter id="filter11_f_233_3894" x="467.216" y="1718.83" width="641.139" height="727.683" filterUnits="userSpaceOnUse" color-interpolation-filters="sRGB">
<feFlood flood-opacity="0" result="BackgroundImageFix"/>
<feBlend mode="normal" in="SourceGraphic" in2="BackgroundImageFix" result="shape"/>
<feGaussianBlur stdDeviation="7" result="effect1_foregroundBlur_233_3894"/>
</filter>
<filter id="filter12_f_233_3894" x="306.746" y="1596.77" width="797.481" height="995.465" filterUnits="userSpaceOnUse" color-interpolation-filters="sRGB">
<feFlood flood-opacity="0" result="BackgroundImageFix"/>
<feBlend mode="normal" in="SourceGraphic" in2="BackgroundImageFix" result="shape"/>
<feGaussianBlur stdDeviation="10" result="effect1_foregroundBlur_233_3894"/>
</filter>
<filter id="filter13_f_233_3894" x="300.831" y="1461.54" width="822.522" height="1341.41" filterUnits="userSpaceOnUse" color-interpolation-filters="sRGB">
<feFlood flood-opacity="0" result="BackgroundImageFix"/>
<feBlend mode="normal" in="SourceGraphic" in2="BackgroundImageFix" result="shape"/>
<feGaussianBlur stdDeviation="27" result="effect1_foregroundBlur_233_3894"/>
</filter>
<filter id="filter14_f_233_3894" x="139.83" y="1277.33" width="939.593" height="1198.19" filterUnits="userSpaceOnUse" color-interpolation-filters="sRGB">
<feFlood flood-opacity="0" result="BackgroundImageFix"/>
<feBlend mode="normal" in="SourceGraphic" in2="BackgroundImageFix" result="shape"/>
<feGaussianBlur stdDeviation="67" result="effect1_foregroundBlur_233_3894"/>
</filter>
<filter id="filter15_f_233_3894" x="253.316" y="1594.35" width="792.949" height="937.57" filterUnits="userSpaceOnUse" color-interpolation-filters="sRGB">
<feFlood flood-opacity="0" result="BackgroundImageFix"/>
<feBlend mode="normal" in="SourceGraphic" in2="BackgroundImageFix" result="shape"/>
<feGaussianBlur stdDeviation="31" result="effect1_foregroundBlur_233_3894"/>
</filter>
<filter id="filter16_f_233_3894" x="324.699" y="1368.39" width="729.561" height="938.846" filterUnits="userSpaceOnUse" color-interpolation-filters="sRGB">
<feFlood flood-opacity="0" result="BackgroundImageFix"/>
<feBlend mode="normal" in="SourceGraphic" in2="BackgroundImageFix" result="shape"/>
<feGaussianBlur stdDeviation="34" result="effect1_foregroundBlur_233_3894"/>
</filter>
<filter id="filter17_f_233_3894" x="208.479" y="1891.05" width="501.654" height="468.312" filterUnits="userSpaceOnUse" color-interpolation-filters="sRGB">
<feFlood flood-opacity="0" result="BackgroundImageFix"/>
<feBlend mode="normal" in="SourceGraphic" in2="BackgroundImageFix" result="shape"/>
<feGaussianBlur stdDeviation="2" result="effect1_foregroundBlur_233_3894"/>
</filter>
<filter id="filter18_f_233_3894" x="175.289" y="1764.88" width="581.323" height="604.767" filterUnits="userSpaceOnUse" color-interpolation-filters="sRGB">
<feFlood flood-opacity="0" result="BackgroundImageFix"/>
<feBlend mode="normal" in="SourceGraphic" in2="BackgroundImageFix" result="shape"/>
<feGaussianBlur stdDeviation="7" result="effect1_foregroundBlur_233_3894"/>
</filter>
<filter id="filter19_f_233_3894" x="119.951" y="1516.79" width="754.932" height="823.071" filterUnits="userSpaceOnUse" color-interpolation-filters="sRGB">
<feFlood flood-opacity="0" result="BackgroundImageFix"/>
<feBlend mode="normal" in="SourceGraphic" in2="BackgroundImageFix" result="shape"/>
<feGaussianBlur stdDeviation="10" result="effect1_foregroundBlur_233_3894"/>
</filter>
<filter id="filter20_f_233_3894" x="48.4714" y="1555.11" width="950.375" height="783.15" filterUnits="userSpaceOnUse" color-interpolation-filters="sRGB">
<feFlood flood-opacity="0" result="BackgroundImageFix"/>
<feBlend mode="normal" in="SourceGraphic" in2="BackgroundImageFix" result="shape"/>
<feGaussianBlur stdDeviation="27" result="effect1_foregroundBlur_233_3894"/>
</filter>
<filter id="filter21_f_233_3894" x="86.988" y="1441.18" width="1087.63" height="950.901" filterUnits="userSpaceOnUse" color-interpolation-filters="sRGB">
<feFlood flood-opacity="0" result="BackgroundImageFix"/>
<feBlend mode="normal" in="SourceGraphic" in2="BackgroundImageFix" result="shape"/>
<feGaussianBlur stdDeviation="67" result="effect1_foregroundBlur_233_3894"/>
</filter>
<filter id="filter22_f_233_3894" x="91.9141" y="1505.01" width="803.051" height="802.234" filterUnits="userSpaceOnUse" color-interpolation-filters="sRGB">
<feFlood flood-opacity="0" result="BackgroundImageFix"/>
<feBlend mode="normal" in="SourceGraphic" in2="BackgroundImageFix" result="shape"/>
<feGaussianBlur stdDeviation="31" result="effect1_foregroundBlur_233_3894"/>
</filter>
<filter id="filter23_f_233_3894" x="199.231" y="1403.3" width="516.13" height="526.744" filterUnits="userSpaceOnUse" color-interpolation-filters="sRGB">
<feFlood flood-opacity="0" result="BackgroundImageFix"/>
<feBlend mode="normal" in="SourceGraphic" in2="BackgroundImageFix" result="shape"/>
<feGaussianBlur stdDeviation="2" result="effect1_foregroundBlur_233_3894"/>
</filter>
<filter id="filter24_f_233_3894" x="193.688" y="1400.39" width="637.31" height="698.117" filterUnits="userSpaceOnUse" color-interpolation-filters="sRGB">
<feFlood flood-opacity="0" result="BackgroundImageFix"/>
<feBlend mode="normal" in="SourceGraphic" in2="BackgroundImageFix" result="shape"/>
<feGaussianBlur stdDeviation="7" result="effect1_foregroundBlur_233_3894"/>
</filter>
<filter id="filter25_f_233_3894" x="194.126" y="1381.46" width="802.952" height="855.409" filterUnits="userSpaceOnUse" color-interpolation-filters="sRGB">
<feFlood flood-opacity="0" result="BackgroundImageFix"/>
<feBlend mode="normal" in="SourceGraphic" in2="BackgroundImageFix" result="shape"/>
<feGaussianBlur stdDeviation="10" result="effect1_foregroundBlur_233_3894"/>
</filter>
<filter id="filter26_f_233_3894" x="178.626" y="1343.68" width="739.485" height="979.667" filterUnits="userSpaceOnUse" color-interpolation-filters="sRGB">
<feFlood flood-opacity="0" result="BackgroundImageFix"/>
<feBlend mode="normal" in="SourceGraphic" in2="BackgroundImageFix" result="shape"/>
<feGaussianBlur stdDeviation="27" result="effect1_foregroundBlur_233_3894"/>
</filter>
<filter id="filter27_f_233_3894" x="121.504" y="1327.01" width="982.97" height="1199.57" filterUnits="userSpaceOnUse" color-interpolation-filters="sRGB">
<feFlood flood-opacity="0" result="BackgroundImageFix"/>
<feBlend mode="normal" in="SourceGraphic" in2="BackgroundImageFix" result="shape"/>
<feGaussianBlur stdDeviation="67" result="effect1_foregroundBlur_233_3894"/>
</filter>
<filter id="filter28_f_233_3894" x="234.55" y="1372.54" width="782.465" height="820.546" filterUnits="userSpaceOnUse" color-interpolation-filters="sRGB">
<feFlood flood-opacity="0" result="BackgroundImageFix"/>
<feBlend mode="normal" in="SourceGraphic" in2="BackgroundImageFix" result="shape"/>
<feGaussianBlur stdDeviation="31" result="effect1_foregroundBlur_233_3894"/>
</filter>
<filter id="filter29_f_233_3894" x="278.341" y="1373.33" width="672.082" height="891.236" filterUnits="userSpaceOnUse" color-interpolation-filters="sRGB">
<feFlood flood-opacity="0" result="BackgroundImageFix"/>
<feBlend mode="normal" in="SourceGraphic" in2="BackgroundImageFix" result="shape"/>
<feGaussianBlur stdDeviation="42" result="effect1_foregroundBlur_233_3894"/>
</filter>
<filter id="filter30_f_233_3894" x="498.24" y="865.239" width="820.973" height="708.783" filterUnits="userSpaceOnUse" color-interpolation-filters="sRGB">
<feFlood flood-opacity="0" result="BackgroundImageFix"/>
<feBlend mode="normal" in="SourceGraphic" in2="BackgroundImageFix" result="shape"/>
<feGaussianBlur stdDeviation="6.58483" result="effect1_foregroundBlur_233_3894"/>
</filter>
<filter id="filter31_f_233_3894" x="365.25" y="688.958" width="1009.15" height="915.803" filterUnits="userSpaceOnUse" color-interpolation-filters="sRGB">
<feFlood flood-opacity="0" result="BackgroundImageFix"/>
<feBlend mode="normal" in="SourceGraphic" in2="BackgroundImageFix" result="shape"/>
<feGaussianBlur stdDeviation="23.0469" result="effect1_foregroundBlur_233_3894"/>
</filter>
<filter id="filter32_f_233_3894" x="147.857" y="378.153" width="1298.54" height="1225.13" filterUnits="userSpaceOnUse" color-interpolation-filters="sRGB">
<feFlood flood-opacity="0" result="BackgroundImageFix"/>
<feBlend mode="normal" in="SourceGraphic" in2="BackgroundImageFix" result="shape"/>
<feGaussianBlur stdDeviation="32.9241" result="effect1_foregroundBlur_233_3894"/>
</filter>
<filter id="filter33_f_233_3894" x="138.485" y="180.93" width="1514.6" height="1526.35" filterUnits="userSpaceOnUse" color-interpolation-filters="sRGB">
<feFlood flood-opacity="0" result="BackgroundImageFix"/>
<feBlend mode="normal" in="SourceGraphic" in2="BackgroundImageFix" result="shape"/>
<feGaussianBlur stdDeviation="88.8952" result="effect1_foregroundBlur_233_3894"/>
</filter>
<filter id="filter34_f_233_3894" x="63.3737" y="-241.877" width="1936.11" height="2215.87" filterUnits="userSpaceOnUse" color-interpolation-filters="sRGB">
<feFlood flood-opacity="0" result="BackgroundImageFix"/>
<feBlend mode="normal" in="SourceGraphic" in2="BackgroundImageFix" result="shape"/>
<feGaussianBlur stdDeviation="220.592" result="effect1_foregroundBlur_233_3894"/>
</filter>
<filter id="filter35_f_233_3894" x="741.526" y="985.069" width="607.624" height="482.747" filterUnits="userSpaceOnUse" color-interpolation-filters="sRGB">
<feFlood flood-opacity="0" result="BackgroundImageFix"/>
<feBlend mode="normal" in="SourceGraphic" in2="BackgroundImageFix" result="shape"/>
<feGaussianBlur stdDeviation="5.15916" result="effect1_foregroundBlur_233_3894"/>
</filter>
<filter id="filter36_f_233_3894" x="692.105" y="960.482" width="740.25" height="635.013" filterUnits="userSpaceOnUse" color-interpolation-filters="sRGB">
<feFlood flood-opacity="0" result="BackgroundImageFix"/>
<feBlend mode="normal" in="SourceGraphic" in2="BackgroundImageFix" result="shape"/>
<feGaussianBlur stdDeviation="18.0571" result="effect1_foregroundBlur_233_3894"/>
</filter>
<filter id="filter37_f_233_3894" x="591.539" y="949.408" width="941.343" height="779.913" filterUnits="userSpaceOnUse" color-interpolation-filters="sRGB">
<feFlood flood-opacity="0" result="BackgroundImageFix"/>
<feBlend mode="normal" in="SourceGraphic" in2="BackgroundImageFix" result="shape"/>
<feGaussianBlur stdDeviation="25.7958" result="effect1_foregroundBlur_233_3894"/>
</filter>
<filter id="filter38_f_233_3894" x="424.065" y="941.802" width="1133.32" height="939.144" filterUnits="userSpaceOnUse" color-interpolation-filters="sRGB">
<feFlood flood-opacity="0" result="BackgroundImageFix"/>
<feBlend mode="normal" in="SourceGraphic" in2="BackgroundImageFix" result="shape"/>
<feGaussianBlur stdDeviation="69.6486" result="effect1_foregroundBlur_233_3894"/>
</filter>
<filter id="filter39_f_233_3894" x="137.409" y="814.113" width="1573.91" height="1368.12" filterUnits="userSpaceOnUse" color-interpolation-filters="sRGB">
<feFlood flood-opacity="0" result="BackgroundImageFix"/>
<feBlend mode="normal" in="SourceGraphic" in2="BackgroundImageFix" result="shape"/>
<feGaussianBlur stdDeviation="172.832" result="effect1_foregroundBlur_233_3894"/>
</filter>
<filter id="filter40_f_233_3894" x="539.452" y="929.42" width="1095.77" height="985.327" filterUnits="userSpaceOnUse" color-interpolation-filters="sRGB">
<feFlood flood-opacity="0" result="BackgroundImageFix"/>
<feBlend mode="normal" in="SourceGraphic" in2="BackgroundImageFix" result="shape"/>
<feGaussianBlur stdDeviation="79.9669" result="effect1_foregroundBlur_233_3894"/>
</filter>
<filter id="filter41_f_233_3894" x="656.163" y="830.767" width="299.822" height="362.693" filterUnits="userSpaceOnUse" color-interpolation-filters="sRGB">
<feFlood flood-opacity="0" result="BackgroundImageFix"/>
<feBlend mode="normal" in="SourceGraphic" in2="BackgroundImageFix" result="shape"/>
<feGaussianBlur stdDeviation="3.53048" result="effect1_foregroundBlur_233_3894"/>
</filter>
<filter id="filter42_f_233_3894" x="639.061" y="783.32" width="405.72" height="444.045" filterUnits="userSpaceOnUse" color-interpolation-filters="sRGB">
<feFlood flood-opacity="0" result="BackgroundImageFix"/>
<feBlend mode="normal" in="SourceGraphic" in2="BackgroundImageFix" result="shape"/>
<feGaussianBlur stdDeviation="12.3567" result="effect1_foregroundBlur_233_3894"/>
</filter>
<filter id="filter43_f_233_3894" x="645.477" y="716.023" width="562.177" height="571.118" filterUnits="userSpaceOnUse" color-interpolation-filters="sRGB">
<feFlood flood-opacity="0" result="BackgroundImageFix"/>
<feBlend mode="normal" in="SourceGraphic" in2="BackgroundImageFix" result="shape"/>
<feGaussianBlur stdDeviation="17.6524" result="effect1_foregroundBlur_233_3894"/>
</filter>
<filter id="filter44_f_233_3894" x="610.413" y="671.703" width="650.979" height="729.256" filterUnits="userSpaceOnUse" color-interpolation-filters="sRGB">
<feFlood flood-opacity="0" result="BackgroundImageFix"/>
<feBlend mode="normal" in="SourceGraphic" in2="BackgroundImageFix" result="shape"/>
<feGaussianBlur stdDeviation="47.6614" result="effect1_foregroundBlur_233_3894"/>
</filter>
<filter id="filter45_f_233_3894" x="461.361" y="606.662" width="1000.79" height="987.244" filterUnits="userSpaceOnUse" color-interpolation-filters="sRGB">
<feFlood flood-opacity="0" result="BackgroundImageFix"/>
<feBlend mode="normal" in="SourceGraphic" in2="BackgroundImageFix" result="shape"/>
<feGaussianBlur stdDeviation="118.271" result="effect1_foregroundBlur_233_3894"/>
</filter>
<filter id="filter46_f_233_3894" x="624.998" y="647.715" width="669.872" height="685.637" filterUnits="userSpaceOnUse" color-interpolation-filters="sRGB">
<feFlood flood-opacity="0" result="BackgroundImageFix"/>
<feBlend mode="normal" in="SourceGraphic" in2="BackgroundImageFix" result="shape"/>
<feGaussianBlur stdDeviation="54.7224" result="effect1_foregroundBlur_233_3894"/>
</filter>
<linearGradient id="paint0_linear_233_3894" x1="292.443" y1="0" x2="292.443" y2="889.287" gradientUnits="userSpaceOnUse">
<stop stop-color="#0239FE"/>
<stop offset="1" stop-color="#0285FE"/>
</linearGradient>
<linearGradient id="paint1_linear_233_3894" x1="786.074" y1="2065.61" x2="534.388" y2="2428.85" gradientUnits="userSpaceOnUse">
<stop stop-color="#C4C4C4"/>
<stop offset="1" stop-color="#C4C4C4" stop-opacity="0"/>
</linearGradient>
<linearGradient id="paint2_linear_233_3894" x1="1085.11" y1="2040.91" x2="463.357" y2="2071.39" gradientUnits="userSpaceOnUse">
<stop stop-color="#C4C4C4"/>
<stop offset="1" stop-color="#C4C4C4" stop-opacity="0"/>
</linearGradient>
<linearGradient id="paint3_linear_233_3894" x1="839.6" y1="2365.84" x2="791.492" y2="1771.92" gradientUnits="userSpaceOnUse">
<stop stop-color="#0239FE"/>
<stop offset="1" stop-color="#0285FE"/>
</linearGradient>
<linearGradient id="paint4_linear_233_3894" x1="868.872" y1="2365.23" x2="820.784" y2="1771.55" gradientUnits="userSpaceOnUse">
<stop stop-color="#0239FE"/>
<stop offset="1" stop-color="#0285FE"/>
</linearGradient>
<linearGradient id="paint5_linear_233_3894" x1="808.303" y1="2402.22" x2="754.406" y2="1736.83" gradientUnits="userSpaceOnUse">
<stop stop-color="#0239FE"/>
<stop offset="1" stop-color="#0285FE"/>
</linearGradient>
<linearGradient id="paint6_linear_233_3894" x1="727.62" y1="2458.89" x2="659.684" y2="1620.17" gradientUnits="userSpaceOnUse">
<stop stop-color="#0239FE"/>
<stop offset="1" stop-color="#0285FE"/>
</linearGradient>
<linearGradient id="paint7_linear_233_3894" x1="712.531" y1="2409.98" x2="640.076" y2="1515.48" gradientUnits="userSpaceOnUse">
<stop stop-color="#0239FE"/>
<stop offset="1" stop-color="#0285FE"/>
</linearGradient>
<linearGradient id="paint8_linear_233_3894" x1="639.978" y1="2335.64" x2="565.103" y2="1411.26" gradientUnits="userSpaceOnUse">
<stop stop-color="#0239FE"/>
<stop offset="1" stop-color="#0285FE"/>
</linearGradient>
<linearGradient id="paint9_linear_233_3894" x1="679.629" y1="2464.78" x2="614.113" y2="1655.95" gradientUnits="userSpaceOnUse">
<stop stop-color="#0239FE"/>
<stop offset="1" stop-color="#0285FE"/>
</linearGradient>
<linearGradient id="paint10_linear_233_3894" x1="676.775" y1="2184.61" x2="251.267" y2="2121.69" gradientUnits="userSpaceOnUse">
<stop stop-color="#C4C4C4"/>
<stop offset="0.943414" stop-color="#C4C4C4" stop-opacity="0"/>
</linearGradient>
<linearGradient id="paint11_linear_233_3894" x1="460.731" y1="2223.92" x2="440.919" y2="1725.63" gradientUnits="userSpaceOnUse">
<stop stop-color="#C4C4C4"/>
<stop offset="1" stop-color="#C4C4C4" stop-opacity="0"/>
</linearGradient>
<linearGradient id="paint12_linear_233_3894" x1="221.538" y1="1556.41" x2="853.39" y2="2146.55" gradientUnits="userSpaceOnUse">
<stop stop-color="#C4C4C4"/>
<stop offset="1" stop-color="#C4C4C4" stop-opacity="0"/>
</linearGradient>
<linearGradient id="paint13_linear_233_3894" x1="617.741" y1="2164.22" x2="561.275" y2="1467.12" gradientUnits="userSpaceOnUse">
<stop offset="0.213542" stop-color="#0073FB"/>
<stop offset="0.567708" stop-color="#65FFED"/>
<stop offset="0.9375" stop-color="#070059"/>
</linearGradient>
<linearGradient id="paint14_linear_233_3894" x1="1001.34" y1="1338.63" x2="587.329" y2="695.298" gradientUnits="userSpaceOnUse">
<stop stop-color="#C4C4C4"/>
<stop offset="1" stop-color="#C4C4C4" stop-opacity="0"/>
</linearGradient>
<linearGradient id="paint15_linear_233_3894" x1="1006.49" y1="967.891" x2="1162" y2="1544.03" gradientUnits="userSpaceOnUse">
<stop stop-color="#C4C4C4"/>
<stop offset="1" stop-color="#C4C4C4" stop-opacity="0"/>
</linearGradient>
<linearGradient id="paint16_linear_233_3894" x1="781.25" y1="987.957" x2="1277.2" y2="828.956" gradientUnits="userSpaceOnUse">
<stop stop-color="#C4C4C4"/>
<stop offset="1" stop-color="#C4C4C4" stop-opacity="0"/>
</linearGradient>
</defs>
</svg>
